<svg xmlns='http://www.w3.org/2000/svg' xmlns:xlink='http://www.w3.org/1999/xlink'>
    <defs>
        <symbol viewBox="0 0 14 14" id="icon_create_pro" xmlns="http://www.w3.org/2000/svg">
            <path d="M7 1V13" stroke="white" stroke-width="2" stroke-miterlimit="10" stroke-linecap="round"
                  stroke-linejoin="round"/>
            <path d="M13 7H1" stroke="white" stroke-width="2" stroke-miterlimit="10" stroke-linecap="round"
                  stroke-linejoin="round"/>
        </symbol>
        <symbol id='ico_logo' width="126" height="41" viewBox="0 0 126 41" fill="none" xmlns="http://www.w3.org/2000/svg">
            <path d="M36.3327 27.3237V33.6163H35.521V27.3237H36.3327Z" fill="white"/>
            <path d="M37.8166 30.3217C37.8166 29.8547 37.8074 29.4719 37.7798 29.0982H38.5086L38.5547 29.8455H38.5731C38.7967 29.4166 39.3204 28.9956 40.0663 28.9956C40.6912 28.9956 41.6634 29.3692 41.6634 30.919V33.6173H40.8412V31.0124C40.8412 30.2836 40.5702 29.6771 39.7953 29.6771C39.2533 29.6771 38.8336 30.0599 38.6941 30.5178C38.6573 30.6204 38.6376 30.7611 38.6376 30.9006V33.6173H37.8153V30.3217H37.8166Z" fill="white"/>
            <path d="M42.9992 30.3217C42.9992 29.8547 42.99 29.4719 42.9624 29.0982H43.6912L43.7373 29.8455H43.7557C43.9794 29.4166 44.503 28.9956 45.2489 28.9956C45.8738 28.9956 46.8461 29.3692 46.8461 30.919V33.6173H46.0238V31.0124C46.0238 30.2836 45.7528 29.6771 44.9779 29.6771C44.4359 29.6771 44.0162 30.0599 43.8767 30.5178C43.8399 30.6204 43.8202 30.7611 43.8202 30.9006V33.6173H42.9979V30.3217H42.9992Z" fill="white"/>
            <path d="M52.2697 31.3203C52.2697 32.9911 51.1119 33.7199 50.02 33.7199C48.7965 33.7199 47.8545 32.824 47.8545 31.3953C47.8545 29.8823 48.8438 28.9956 50.095 28.9956C51.3922 28.9956 52.2697 29.9389 52.2697 31.3203ZM48.6846 31.3676C48.6846 32.357 49.2543 33.1042 50.0568 33.1042C50.8409 33.1042 51.429 32.3662 51.429 31.3492C51.429 30.5835 51.0461 29.6126 50.0752 29.6126C49.1043 29.6126 48.6846 30.5086 48.6846 31.3676Z" fill="white"/>
            <path d="M53.5574 29.0968L54.4442 31.6359C54.5941 32.0464 54.7152 32.42 54.8086 32.7937H54.8362C54.9388 32.42 55.0691 32.0464 55.2191 31.6359L56.0966 29.0968H56.9556L55.1822 33.6159H54.3981L52.6799 29.0968H53.5574Z" fill="white"/>
            <path d="M60.195 33.6174L60.1293 33.0477H60.1016C59.849 33.4029 59.3636 33.72 58.7203 33.72C57.8046 33.72 57.3389 33.0753 57.3389 32.4228C57.3389 31.3308 58.3098 30.7322 60.0556 30.7428V30.6493C60.0556 30.2757 59.953 29.6034 59.0281 29.6034C58.6084 29.6034 58.169 29.7337 57.852 29.9402L57.6651 29.3982C58.0388 29.1548 58.5808 28.9969 59.1491 28.9969C60.5305 28.9969 60.8673 29.9402 60.8673 30.8454V32.5359C60.8673 32.928 60.8857 33.3108 60.9423 33.6187H60.195V33.6174ZM60.074 31.3111C59.1781 31.2927 58.1598 31.4506 58.1598 32.3294C58.1598 32.8609 58.515 33.1135 58.9347 33.1135C59.5228 33.1135 59.8964 32.7398 60.0266 32.357C60.0543 32.2728 60.0727 32.1794 60.0727 32.0952V31.3111H60.074Z" fill="white"/>
            <path d="M63.1458 27.8014V29.0986H64.322V29.7235H63.1458V32.16C63.1458 32.7204 63.305 33.0375 63.7615 33.0375C63.976 33.0375 64.1352 33.0099 64.2378 32.9809L64.2746 33.5966C64.1154 33.6624 63.8641 33.7085 63.5458 33.7085C63.1629 33.7085 62.8551 33.5874 62.6591 33.3625C62.4262 33.1191 62.342 32.7178 62.342 32.1863V29.7209H61.6421V29.0959H62.342V28.0132L63.1458 27.8014Z" fill="white"/>
            <path d="M66.1615 27.8286C66.1707 28.1089 65.9655 28.3325 65.6392 28.3325C65.3498 28.3325 65.1445 28.1089 65.1445 27.8286C65.1445 27.5392 65.359 27.3156 65.6576 27.3156C65.9655 27.3156 66.1615 27.5392 66.1615 27.8286ZM65.2458 33.6173V29.0982H66.0681V33.6173H65.2458Z" fill="white"/>
            <path d="M71.5204 31.3203C71.5204 32.9911 70.3627 33.7199 69.2707 33.7199C68.0472 33.7199 67.1052 32.824 67.1052 31.3953C67.1052 29.8823 68.0946 28.9956 69.3457 28.9956C70.6429 28.9956 71.5204 29.9389 71.5204 31.3203ZM67.9354 31.3676C67.9354 32.357 68.505 33.1042 69.3075 33.1042C70.0916 33.1042 70.6797 32.3662 70.6797 31.3492C70.6797 30.5835 70.2969 29.6126 69.326 29.6126C68.355 29.6126 67.9354 30.5086 67.9354 31.3676Z" fill="white"/>
            <path d="M72.5564 30.3217C72.5564 29.8547 72.5472 29.4719 72.5195 29.0982H73.2484L73.2944 29.8455H73.3128C73.5365 29.4166 74.0601 28.9956 74.8074 28.9956C75.4323 28.9956 76.4045 29.3692 76.4045 30.919V33.6173H75.5823V31.0124C75.5823 30.2836 75.3112 29.6771 74.5364 29.6771C73.9943 29.6771 73.5746 30.0599 73.4352 30.5178C73.3984 30.6204 73.3786 30.7611 73.3786 30.9006V33.6173H72.5564V30.3217Z" fill="white"/>
            <path d="M77.6259 32.778C77.868 32.9372 78.2982 33.1042 78.7086 33.1042C79.3059 33.1042 79.5861 32.8056 79.5861 32.432C79.5861 32.0399 79.3533 31.8255 78.7455 31.6005C77.9337 31.3111 77.5509 30.8624 77.5509 30.3217C77.5509 29.5929 78.139 28.9956 79.1099 28.9956C79.5677 28.9956 79.969 29.1259 80.2216 29.2758L80.0163 29.8731C79.8387 29.7613 79.5125 29.6113 79.0915 29.6113C78.606 29.6113 78.335 29.8915 78.335 30.227C78.335 30.6006 78.606 30.769 79.1941 30.9927C79.9782 31.2913 80.3794 31.6834 80.3794 32.3557C80.3794 33.149 79.7637 33.7094 78.6902 33.7094C78.1955 33.7094 77.7377 33.5884 77.4207 33.4016L77.6259 32.778Z" fill="white"/>
            <path d="M83.499 33.6171V29.7243H82.8635V29.0993H83.499V28.8849C83.499 28.2495 83.6384 27.6706 84.0213 27.3075C84.3291 27.0089 84.7396 26.8878 85.1224 26.8878C85.4119 26.8878 85.6645 26.9536 85.8223 27.0181L85.7105 27.6535C85.5895 27.5969 85.4211 27.5509 85.1882 27.5509C84.4883 27.5509 84.3107 28.1666 84.3107 28.8586V29.102H85.4026V29.7269H84.3107V33.6198H83.499V33.6171Z" fill="white"/>
            <path d="M90.1083 31.3203C90.1083 32.9911 88.9506 33.7199 87.8586 33.7199C86.6351 33.7199 85.6931 32.824 85.6931 31.3953C85.6931 29.8823 86.6825 28.9956 87.9336 28.9956C89.2308 28.9956 90.1083 29.9389 90.1083 31.3203ZM86.5233 31.3676C86.5233 32.357 87.0929 33.1042 87.8954 33.1042C88.6795 33.1042 89.2676 32.3662 89.2676 31.3492C89.2676 30.5835 88.8848 29.6126 87.9139 29.6126C86.9429 29.6126 86.5233 30.5086 86.5233 31.3676Z" fill="white"/>
            <path d="M91.1433 30.5086C91.1433 29.9757 91.1341 29.5192 91.1064 29.0982H91.8248L91.8524 29.9849H91.8892C92.0945 29.3784 92.5891 28.9956 93.1404 28.9956C93.2338 28.9956 93.2996 29.0048 93.3732 29.0232V29.7981C93.289 29.7797 93.2048 29.7705 93.093 29.7705C92.5141 29.7705 92.1037 30.2099 91.9918 30.8256C91.9734 30.9374 91.955 31.069 91.955 31.2085V33.6173H91.1433V30.5086Z" fill="white"/>
            <path d="M96.2043 27.3237H97.0161V32.9348H99.7052V33.6163H96.2043V27.3237Z" fill="white"/>
            <path d="M101.498 27.8286C101.507 28.1089 101.302 28.3325 100.975 28.3325C100.686 28.3325 100.481 28.1089 100.481 27.8286C100.481 27.5392 100.695 27.3156 100.994 27.3156C101.302 27.3156 101.498 27.5392 101.498 27.8286ZM100.583 33.6173V29.0982H101.406V33.6173H100.583Z" fill="white"/>
            <path d="M102.852 33.6171V29.7243H102.216V29.0993H102.852V28.8849C102.852 28.2495 102.991 27.6706 103.374 27.3075C103.682 27.0089 104.092 26.8878 104.475 26.8878C104.764 26.8878 105.017 26.9536 105.175 27.0181L105.063 27.6535C104.942 27.5969 104.774 27.5509 104.541 27.5509C103.841 27.5509 103.663 28.1666 103.663 28.8586V29.102H104.755V29.7269H103.663V33.6198H102.852V33.6171Z" fill="white"/>
            <path d="M105.83 31.5071C105.848 32.6188 106.559 33.0753 107.38 33.0753C107.968 33.0753 108.323 32.9727 108.631 32.8424L108.77 33.4305C108.481 33.5608 107.986 33.7107 107.266 33.7107C105.876 33.7107 105.044 32.7964 105.044 31.4321C105.044 30.0691 105.847 28.9956 107.164 28.9956C108.639 28.9956 109.031 30.2928 109.031 31.1243C109.031 31.2927 109.012 31.4229 109.003 31.5071H105.83ZM108.239 30.919C108.248 30.3967 108.024 29.5837 107.099 29.5837C106.268 29.5837 105.905 30.3494 105.839 30.919H108.239Z" fill="white"/>
            <path d="M108.636 9.2583C109.463 9.2583 110.828 9.2583 110.828 9.2583C110.828 9.2583 110.839 16.0521 110.812 19.4227C110.775 20.1068 110.476 20.7067 110.151 21.2606C108.825 23.5208 105.16 24.5167 101.738 23.6037C99.0897 22.8959 97.6281 20.8935 97.6215 17.9373C97.6149 15.0772 97.6202 12.2171 97.6202 9.2833C98.7568 9.2833 99.7751 9.2833 101.013 9.2833C101.013 10.0319 101.013 10.8094 101.013 11.5869C101.013 13.8932 100.975 16.1994 101.025 18.5044C101.078 20.9159 102.659 22.513 104.869 22.4959C107.016 22.4788 108.573 20.9172 108.62 18.5623C108.683 15.5101 108.636 12.4552 108.636 9.2583Z" fill="white"/>
            <path d="M117.979 17.3712C117.979 19.5538 117.979 21.4785 117.979 23.5151C116.785 23.5151 115.64 23.5151 114.398 23.5151C114.398 18.8223 114.398 9.11708 114.398 9.11708C114.398 9.11708 118.995 8.93684 121.243 9.25785C123.851 9.63148 125.174 11.4707 125.043 13.5809C124.92 15.5372 123.161 17.1278 120.775 17.358C119.9 17.4422 119.011 17.3712 117.979 17.3712ZM118.048 10.7011C118.048 12.4298 118.048 14.1493 118.048 15.8951C119.234 16.1332 120.453 16.0858 120.863 14.9202C121.201 13.9598 121.222 12.6942 120.887 11.7378C120.488 10.5998 119.262 10.4853 118.048 10.7011Z" fill="white"/>
            <path d="M83.4819 19.9519C84.5568 19.9519 85.5882 19.9519 85.5882 19.9519C85.5882 19.9519 85.7435 20.3755 86.5499 21.2846C87.5037 22.3581 89.3285 22.8844 90.5625 22.1016C91.5321 21.4872 91.7426 20.2321 90.8506 19.3033C90.1849 18.61 89.2995 18.1153 88.4747 17.5877C87.3301 16.8563 86.0421 16.3077 85.0107 15.4459C83.2057 13.9369 83.3609 11.5425 85.2001 10.098C88.4207 7.57073 93.4042 9.0429 94.3567 12.8042C93.1911 12.8068 92.2465 12.8042 92.2465 12.8042C92.2465 12.8042 92.0044 12.3003 91.5742 11.6952C91.1032 11.0334 90.2678 10.3388 88.9864 10.394C88.0155 10.4361 87.1104 10.6479 86.721 11.6754C86.3131 12.7555 86.8972 13.5278 87.7261 14.0619C88.8286 14.7737 90.0231 15.3407 91.1493 16.0182C91.9505 16.5011 92.7793 16.9813 93.4608 17.6088C94.7606 18.8073 94.8948 20.5347 93.8094 21.9332C92.257 23.9329 90.0376 24.0816 87.78 23.829C85.7014 23.5961 84.17 22.5449 83.5635 20.4216C83.5398 20.336 83.5004 20.1571 83.4819 19.9519Z" fill="white"/>
            <path d="M73.1238 22.2118C75.505 22.2118 77.7955 22.2118 80.1675 22.2118C80.1675 22.7118 80.1675 23.1051 80.1675 23.563C76.6838 23.563 73.2658 23.563 69.7532 23.563C69.7532 18.8163 69.7532 14.0932 69.7532 9.20972C73.0501 9.20972 80.1557 9.20972 80.1557 9.20972V10.3148C80.1557 10.3148 75.5142 10.3148 73.1224 10.3148C73.1224 11.9593 73.1224 13.4473 73.1224 15.1457C74.7867 15.1457 78.919 15.1457 78.919 15.1457L78.915 16.2679C78.915 16.2679 75.0985 16.2679 73.1238 16.2679C73.1238 18.2716 73.1238 20.1371 73.1238 22.2118Z" fill="white"/>
            <path d="M56.1577 23.5545C56.1577 18.767 56.1577 14.0742 56.1577 9.29333C59.5191 9.29333 66.1563 9.29333 66.1563 9.29333V10.3458C66.1563 10.3458 61.4899 10.3366 59.5204 10.3366C59.5204 11.9482 59.5204 15.0991 59.5204 15.0991H65.2433L65.2459 16.2818L59.5204 16.2739C59.5204 16.2739 59.5204 21.1127 59.5204 23.5545C58.3495 23.5545 57.3312 23.5545 56.1577 23.5545Z" fill="white"/>
            <path d="M38.5558 22.2054C41.1028 22.2054 45.964 22.2054 45.964 22.2054V23.5328C45.964 23.5328 38.8676 23.5328 35.2878 23.5328C35.2878 18.8164 35.2878 14.1276 35.2878 9.32166C36.3035 9.32166 37.352 9.32166 38.5558 9.32166C38.5558 13.5303 38.5558 17.7849 38.5558 22.2054Z" fill="white"/>
            <path d="M52.064 23.5617C50.947 23.5617 49.93 23.5617 48.842 23.5617C48.842 18.8111 48.842 14.1222 48.842 9.31897C49.8643 9.31897 50.9141 9.31897 52.064 9.31897C52.064 14.0038 52.064 18.7255 52.064 23.5617Z" fill="white"/>
            <path d="M30.0898 11.6467H7.78638C7.15621 11.6467 6.64575 12.1572 6.64575 12.7874V35.0921C6.64575 35.7223 7.15621 36.2327 7.78638 36.2327H30.0911C30.7213 36.2327 31.2318 35.7223 31.2318 35.0921V12.786C31.2305 12.1572 30.72 11.6467 30.0898 11.6467Z" fill="#6BD5D1"/>
            <path d="M31.1604 0H25.2113C24.9271 0 24.6956 0.230231 24.6956 0.515717V6.15308C24.6956 6.43725 24.9258 6.6688 25.2113 6.6688H31.1604C31.4446 6.6688 31.6762 6.43857 31.6762 6.15308V0.515717C31.6762 0.230231 31.4459 0 31.1604 0Z" fill="#19C6C0"/>
            <path d="M4.30588 36.4987H1.25105C1.06292 36.4987 0.911621 36.6513 0.911621 36.8381V39.8929C0.911621 40.0811 1.06423 40.2323 1.25105 40.2323H4.30588C4.49401 40.2323 4.64531 40.0797 4.64531 39.8929V36.8381C4.64531 36.6513 4.49401 36.4987 4.30588 36.4987Z" fill="white"/>
            <path d="M18.9289 2.40063H0.920923C0.411784 2.40063 0 2.81242 0 3.32156V21.3296C0 21.8387 0.411784 22.2505 0.920923 22.2505H18.9289C19.4381 22.2505 19.8498 21.8387 19.8498 21.3296V3.32156C19.8498 2.81242 19.4381 2.40063 18.9289 2.40063Z" fill="#00BDF5" fill-opacity="0.85"/>
        </symbol>

        <symbol id="icon_trash" viewBox="0 0 14 14" xmlns="http://www.w3.org/2000/svg">
            <path
                d="M8.93108 5.0722C8.74998 5.0722 8.60321 5.21898 8.60321 5.40007V11.5968C8.60321 11.7778 8.74998 11.9247 8.93108 11.9247C9.11217 11.9247 9.25895 11.7778 9.25895 11.5968V5.40007C9.25895 5.21898 9.11217 5.0722 8.93108 5.0722Z"/>
            <path
                d="M5.06224 5.0722C4.88115 5.0722 4.73438 5.21898 4.73438 5.40007V11.5968C4.73438 11.7778 4.88115 11.9247 5.06224 11.9247C5.24334 11.9247 5.39011 11.7778 5.39011 11.5968V5.40007C5.39011 5.21898 5.24334 5.0722 5.06224 5.0722Z"/>
            <path
                d="M2.2426 4.16793V12.2459C2.2426 12.7234 2.41767 13.1717 2.72351 13.4935C3.02794 13.8161 3.45161 13.9992 3.895 14H10.0984C10.5419 13.9992 10.9655 13.8161 11.2698 13.4935C11.5757 13.1717 11.7508 12.7234 11.7508 12.2459V4.16793C12.3587 4.00656 12.7527 3.41922 12.6713 2.79537C12.5899 2.17166 12.0585 1.70508 11.4294 1.70496H9.75077V1.29512C9.75269 0.950476 9.61642 0.619534 9.37244 0.376067C9.12846 0.132727 8.797 -0.00277453 8.45236 4.30791e-05H5.541C5.19635 -0.00277453 4.8649 0.132727 4.62092 0.376067C4.37694 0.619534 4.24067 0.950476 4.24259 1.29512V1.70496H2.56393C1.93484 1.70508 1.40346 2.17166 1.32201 2.79537C1.24068 3.41922 1.63463 4.00656 2.2426 4.16793ZM10.0984 13.3443H3.895C3.33442 13.3443 2.89833 12.8627 2.89833 12.2459V4.19675H11.095V12.2459C11.095 12.8627 10.6589 13.3443 10.0984 13.3443ZM4.89833 1.29512C4.89615 1.1244 4.96326 0.960081 5.08442 0.839564C5.20545 0.719047 5.37015 0.652833 5.541 0.655779H8.45236C8.62321 0.652833 8.78791 0.719047 8.90894 0.839564C9.0301 0.959953 9.09721 1.1244 9.09503 1.29512V1.70496H4.89833V1.29512ZM2.56393 2.36069H11.4294C11.7554 2.36069 12.0196 2.62491 12.0196 2.95085C12.0196 3.2768 11.7554 3.54102 11.4294 3.54102H2.56393C2.23799 3.54102 1.97377 3.2768 1.97377 2.95085C1.97377 2.62491 2.23799 2.36069 2.56393 2.36069Z"/>
            <path
                d="M6.99669 5.0722C6.8156 5.0722 6.66882 5.21898 6.66882 5.40007V11.5968C6.66882 11.7778 6.8156 11.9247 6.99669 11.9247C7.17779 11.9247 7.32456 11.7778 7.32456 11.5968V5.40007C7.32456 5.21898 7.17779 5.0722 6.99669 5.0722Z"/>
        </symbol>
        <symbol viewBox='0 0 81 62' id='ico_upload' xmlns='http://www.w3.org/2000/svg'>
            <path
                d='M68.202 21.4066C64.4287 6.67729 49.1841 -2.26579 34.1522 1.43162C22.405 4.32115 13.8753 14.2696 12.9964 26.1059C4.65548 27.4538 -0.991197 35.1718 0.384319 43.3448C1.60709 50.6108 8.03233 55.9319 15.5475 55.9027H28.303V50.9032H15.5475C9.91184 50.9032 5.34316 46.4265 5.34316 40.9043C5.34316 35.3821 9.91184 30.9054 15.5475 30.9054C16.9565 30.9054 18.0986 29.7863 18.0986 28.4057C18.0859 15.9806 28.3551 5.898 41.0355 5.88566C52.0122 5.87488 61.4613 13.4787 63.5846 24.0312C63.7942 25.0848 64.6669 25.8897 65.753 26.031C72.7273 27.0041 77.5759 33.333 76.5828 40.1667C75.6911 46.3033 70.344 50.8723 64.0182 50.9032H53.8139V55.9027H64.0182C73.8808 55.8735 81.8516 48.0156 81.8217 38.3516C81.7968 30.3072 76.1774 23.3156 68.202 21.4066Z'
            />
            <path
                d='M39.2471 31.6303L29.0427 41.6292L32.6398 45.1538L38.5073 39.4294V63.4017H43.6095V39.4294L49.4515 45.1538L53.0485 41.6292L42.8441 31.6303C41.849 30.661 40.2422 30.661 39.2471 31.6303Z'
            />
        </symbol>
        <symbol id='ico_import_excel' width="24" height="24" viewBox="0 0 24 24" fill="none" xmlns="http://www.w3.org/2000/svg">
            <path d="M18.53 9L13 3.47C12.8595 3.32931 12.6688 3.25018 12.47 3.25H8C7.27065 3.25 6.57118 3.53973 6.05546 4.05546C5.53973 4.57118 5.25 5.27065 5.25 6V18C5.25 18.7293 5.53973 19.4288 6.05546 19.9445C6.57118 20.4603 7.27065 20.75 8 20.75H16C16.7293 20.75 17.4288 20.4603 17.9445 19.9445C18.4603 19.4288 18.75 18.7293 18.75 18V9.5C18.7421 9.3116 18.6636 9.13309 18.53 9ZM13.25 5.81L16.19 8.75H13.25V5.81ZM16 19.25H8C7.66848 19.25 7.35054 19.1183 7.11612 18.8839C6.8817 18.6495 6.75 18.3315 6.75 18V6C6.75 5.66848 6.8817 5.35054 7.11612 5.11612C7.35054 4.8817 7.66848 4.75 8 4.75H11.75V9.5C11.7526 9.69811 11.8324 9.88737 11.9725 10.0275C12.1126 10.1676 12.3019 10.2474 12.5 10.25H17.25V18C17.25 18.3315 17.1183 18.6495 16.8839 18.8839C16.6495 19.1183 16.3315 19.25 16 19.25Z" fill="#0F296D"/>
            <path d="M14.4699 11.9101C14.3119 11.7893 14.1134 11.7344 13.9158 11.7568C13.7182 11.7791 13.5369 11.8771 13.4099 12.0301L11.9999 13.8001L10.5899 12.0001C10.5243 11.9226 10.444 11.8588 10.3537 11.8123C10.2634 11.7659 10.1648 11.7377 10.0636 11.7293C9.96236 11.721 9.86048 11.7326 9.76378 11.7636C9.66707 11.7946 9.57741 11.8444 9.49993 11.9101C9.42245 11.9757 9.35866 12.056 9.31221 12.1463C9.26575 12.2366 9.23754 12.3352 9.22919 12.4364C9.22083 12.5376 9.23249 12.6395 9.2635 12.7362C9.29451 12.8329 9.34427 12.9226 9.40993 13.0001L10.9999 15.0001L9.40993 17.0001C9.28528 17.1565 9.22789 17.3561 9.2504 17.5549C9.2729 17.7537 9.37345 17.9354 9.52993 18.0601C9.68641 18.1847 9.886 18.2421 10.0848 18.2196C10.2836 18.1971 10.4653 18.0965 10.5899 17.9401L11.9999 16.2001L13.4099 18.0001C13.4817 18.0871 13.5718 18.1573 13.6738 18.2057C13.7757 18.2541 13.8871 18.2795 13.9999 18.2801C14.1533 18.2928 14.3069 18.258 14.4398 18.1804C14.5727 18.1029 14.6785 17.9863 14.743 17.8466C14.8074 17.7068 14.8273 17.5506 14.7999 17.3992C14.7725 17.2478 14.6992 17.1084 14.5899 17.0001L12.9999 15.0001L14.6299 13.0001C14.6922 12.9184 14.7375 12.8252 14.7631 12.7258C14.7888 12.6264 14.7944 12.5229 14.7794 12.4214C14.7645 12.3198 14.7295 12.2223 14.6763 12.1345C14.6232 12.0466 14.553 11.9703 14.4699 11.9101Z" fill="#0F296D"/>
        </symbol>
        <symbol id='ico_user' viewBox="0 0 16 16" xmlns="http://www.w3.org/2000/svg">
            <path fill-rule="evenodd" clip-rule="evenodd" d="M3.49766 7.55994H2.28514C1.80465 7.55994 1.39095 7.89909 1.29672 8.37025L0.0199172 14.7543C-0.104831 15.378 0.372247 15.9599 1.00834 15.9599H14.4345C15.1573 15.9599 15.6452 15.2215 15.3617 14.5566L12.64 8.17262C12.4816 7.80106 12.1167 7.55994 11.7127 7.55994H10.8907C10.0478 8.58019 8.70578 9.24015 7.19418 9.24015C5.68257 9.24015 4.34053 8.58019 3.49766 7.55994Z" />
            <ellipse cx="7.19422" cy="4.19988" rx="4.62" ry="4.2" />
        </symbol>
        <symbol id='ico_setting' viewBox="0 0 18 18" xmlns="http://www.w3.org/2000/svg">
            <path d="M8.15603 0.839964C7.90764 0.839964 7.68155 0.956881 7.53536 1.11929C7.38917 1.2817 7.30804 1.48041 7.2693 1.68509C7.2693 1.68519 7.2693 1.68529 7.2693 1.68539L7.02079 2.99929C6.7132 3.10134 6.41425 3.22573 6.12498 3.37183L5.01846 2.61736C4.84645 2.5001 4.64855 2.41675 4.43031 2.40525C4.21185 2.39377 3.96953 2.47151 3.79412 2.64693L2.48759 3.95346C2.31196 4.12905 2.23449 4.37152 2.24583 4.58973C2.25709 4.80794 2.34033 5.00633 2.45763 5.1785L3.20884 6.28029C3.06313 6.57103 2.93938 6.87148 2.83809 7.18052L1.52543 7.42895C1.32075 7.46768 1.12166 7.54883 0.959245 7.69501C0.796829 7.84121 0.679993 8.06771 0.679993 8.31608V10.1638C0.679993 10.4122 0.796829 10.6383 0.959245 10.7845C1.12166 10.9307 1.32075 11.0121 1.52543 11.0508L2.84019 11.2999C2.94224 11.6072 3.06639 11.9059 3.21241 12.1949L2.45763 13.3014C2.34024 13.4736 2.25717 13.6718 2.24583 13.8901C2.23457 14.1083 2.31188 14.3508 2.48759 14.5263L3.79412 15.8329C3.96974 16.0085 4.21209 16.0857 4.43031 16.0742C4.64854 16.0628 4.84662 15.9796 5.01877 15.8622L6.12056 15.1112C6.41137 15.2569 6.71199 15.3805 7.0211 15.4817L7.26954 16.7944C7.30827 16.9991 7.38946 17.1982 7.53567 17.3606C7.68187 17.523 7.90795 17.6398 8.15634 17.6398H10.0044C10.2528 17.6398 10.4788 17.523 10.625 17.3606C10.7712 17.1983 10.8524 16.9993 10.8912 16.7947V16.7943L11.1399 15.4804C11.4475 15.3784 11.7464 15.254 12.0357 15.1079L13.1419 15.8621C13.3141 15.9794 13.5122 16.0627 13.7304 16.0741C13.9486 16.0855 14.1913 16.0083 14.3669 15.8327L15.6734 14.5262C15.849 14.3506 15.9263 14.1078 15.9149 13.8896C15.9035 13.6714 15.8202 13.4733 15.7028 13.3012L14.9516 12.1994C15.0973 11.9087 15.221 11.6082 15.3223 11.2991L16.635 11.0507C16.8396 11.012 17.0387 10.9305 17.2012 10.7843C17.3636 10.6382 17.4804 10.412 17.4804 10.1637V8.31587C17.4804 8.06749 17.3636 7.84108 17.2012 7.69489C17.0388 7.54877 16.8399 7.46759 16.6353 7.42884L15.3211 7.18008C15.2191 6.87267 15.0946 6.57394 14.9486 6.28482L15.7031 5.17838C15.8204 5.00629 15.9037 4.80816 15.9152 4.58992C15.9268 4.37168 15.8492 4.12898 15.6734 3.95334L14.3672 2.64681C14.1915 2.47126 13.949 2.39366 13.7306 2.40513C13.5124 2.41666 13.3145 2.50003 13.1426 2.61724L12.0408 3.36845C11.75 3.22277 11.4493 3.09917 11.1402 2.99793L10.8914 1.68496C10.8527 1.4803 10.7715 1.28158 10.6253 1.11916C10.4792 0.956749 10.2531 0.839836 10.0047 0.839836L8.15603 0.839964ZM9.08008 6.05763C10.8413 6.05763 12.2619 7.47852 12.2619 9.23974C12.2619 11.0009 10.8412 12.4218 9.08008 12.4219C7.31885 12.4219 5.89795 11.001 5.89789 9.23974C5.89789 7.47843 7.31878 6.05757 9.08008 6.05763Z" />
        </symbol>
        <symbol id='ico_congviec' viewBox="0 0 17 17"  xmlns="http://www.w3.org/2000/svg">
            <path d="M15.1018 16.8634H1.51018C1.1098 16.863 0.725977 16.7037 0.442865 16.4206C0.159753 16.1375 0.000466295 15.7536 0 15.3533V5.28542H16.6119V15.3533C16.6115 15.7536 16.4522 16.1375 16.1691 16.4206C15.886 16.7037 15.5021 16.863 15.1018 16.8634ZM5.03392 10.535C4.90041 10.535 4.77235 10.5881 4.67795 10.6825C4.58354 10.7769 4.53053 10.9049 4.53053 11.0384V11.1104C4.53053 11.2439 4.58354 11.372 4.67795 11.4664C4.77235 11.5608 4.90041 11.6138 5.03392 11.6138H7.76657V14.3465C7.76657 14.48 7.81964 14.608 7.91405 14.7024C8.00845 14.7968 8.13645 14.8499 8.26996 14.8499H8.34198C8.47549 14.8499 8.60349 14.7968 8.69789 14.7024C8.7923 14.608 8.84537 14.48 8.84537 14.3465V11.6138H11.578C11.7115 11.6138 11.8396 11.5608 11.934 11.4664C12.0284 11.372 12.0814 11.2439 12.0814 11.1104V11.0384C12.0814 10.9049 12.0284 10.7769 11.934 10.6825C11.8396 10.5881 11.7115 10.535 11.578 10.535H8.84537V7.80238C8.84537 7.66887 8.7923 7.54084 8.69789 7.44643C8.60349 7.35203 8.47549 7.29898 8.34198 7.29898H8.26996C8.13645 7.29898 8.00845 7.35203 7.91405 7.44643C7.81964 7.54084 7.76657 7.66887 7.76657 7.80238V10.5353L5.03392 10.535Z" />
            <path d="M13.0882 4.53022H0V3.52344C0 3.12292 0.159099 2.73879 0.442312 2.45557C0.725525 2.17236 1.10965 2.01326 1.51018 2.01326H2.26526V1.25818C2.26526 0.924405 2.39783 0.604309 2.63384 0.368298C2.86985 0.132287 3.18998 -0.000305176 3.52374 -0.000305176H4.02714C4.36091 -0.000305176 4.68103 0.132287 4.91704 0.368298C5.15306 0.604309 5.28562 0.924405 5.28562 1.25818V2.01326H6.79579V1.25818C6.79579 0.924405 6.92836 0.604309 7.16437 0.368298C7.40038 0.132287 7.7205 -0.000305176 8.05427 -0.000305176H8.55767C8.89144 -0.000305176 9.21156 0.132287 9.44757 0.368298C9.68358 0.604309 9.81615 0.924405 9.81615 1.25818V2.01326H11.3263V1.25818C11.3263 0.924405 11.4589 0.604309 11.6949 0.368298C11.9309 0.132287 12.251 -0.000305176 12.5848 -0.000305176H13.0882C13.422 -0.000305176 13.7421 0.132287 13.9781 0.368298C14.2141 0.604309 14.3467 0.924405 14.3467 1.25818V2.01326H15.1018C15.5023 2.01326 15.8864 2.17236 16.1696 2.45557C16.4528 2.73879 16.6119 3.12292 16.6119 3.52344V4.53022H13.0882Z" />
        </symbol>
        <symbol id='ico_duan' viewBox="0 0 19 20" xmlns="http://www.w3.org/2000/svg">
            <path d="M15.2649 12.8353L11.4507 16.65L13.0793 18.2784L16.8935 14.4636L15.2649 12.8353Z" />
            <path d="M10.4518 17.6556C10.4103 17.6971 10.3688 17.7594 10.3688 17.8216L10.0369 19.2946C9.97461 19.5436 10.2028 19.7718 10.4518 19.7096L11.9248 19.3776C11.9871 19.3569 12.0493 19.3361 12.0908 19.2946L12.5472 18.8382L10.929 17.22L10.4518 17.6556Z" />
            <path d="M18.2111 12.6349L17.0701 11.5146C16.9456 11.3901 16.7174 11.3901 16.5929 11.5146L15.8253 12.2822L17.4435 13.9005L18.2111 13.1328C18.3564 12.9876 18.3564 12.7802 18.2111 12.6349Z" />
            <path d="M14.2899 12.4275V0.830026C14.2899 0.373596 13.9165 0.000152588 13.46 0.000152588H1.50987C1.05344 0.000152588 0.679993 0.373596 0.679993 0.830026V15.0624C0.679993 15.5188 1.05344 15.8922 1.50987 15.8922H10.8459L14.2899 12.4275ZM6.42687 2.80098H11.1364C11.4061 2.80098 11.6136 3.02919 11.6136 3.27815C11.6136 3.54786 11.3854 3.75533 11.1364 3.75533H6.42687C6.15716 3.75533 5.94969 3.52711 5.94969 3.27815C5.92894 3.00844 6.15716 2.80098 6.42687 2.80098ZM6.42687 5.89225H11.1364C11.4061 5.89225 11.6136 6.12047 11.6136 6.36943C11.6136 6.63914 11.3854 6.84661 11.1364 6.84661H6.42687C6.15716 6.84661 5.94969 6.61839 5.94969 6.36943C5.92894 6.12047 6.15716 5.89225 6.42687 5.89225ZM6.42687 9.02503H11.1364C11.4061 9.02503 11.6136 9.25324 11.6136 9.5022C11.6136 9.77191 11.3854 9.97938 11.1364 9.97938H6.42687C6.15716 9.97938 5.94969 9.75117 5.94969 9.5022C5.92894 9.2325 6.15716 9.02503 6.42687 9.02503ZM4.18621 13.1122H3.83351C3.5638 13.1122 3.35633 12.8839 3.35633 12.635C3.35633 12.3653 3.58455 12.1578 3.83351 12.1578H4.18621C4.45592 12.1578 4.66339 12.386 4.66339 12.635C4.68413 12.8839 4.45592 13.1122 4.18621 13.1122ZM4.18621 9.97938H3.83351C3.5638 9.97938 3.35633 9.75117 3.35633 9.5022C3.35633 9.2325 3.58455 9.02503 3.83351 9.02503H4.18621C4.45592 9.02503 4.66339 9.25324 4.66339 9.5022C4.68413 9.77191 4.45592 9.97938 4.18621 9.97938ZM4.18621 6.86736H3.83351C3.5638 6.86736 3.35633 6.63914 3.35633 6.39018C3.35633 6.12047 3.58455 5.913 3.83351 5.913H4.18621C4.45592 5.913 4.66339 6.14122 4.66339 6.39018C4.68413 6.65989 4.45592 6.86736 4.18621 6.86736ZM4.18621 3.77608H3.83351C3.5638 3.77608 3.35633 3.54786 3.35633 3.2989C3.35633 3.02919 3.58455 2.82172 3.83351 2.82172H4.18621C4.45592 2.82172 4.66339 3.04994 4.66339 3.2989C4.68413 3.54786 4.45592 3.77608 4.18621 3.77608ZM5.92894 12.6142C5.92894 12.3445 6.15716 12.1371 6.40612 12.1371H11.1157C11.3854 12.1371 11.5928 12.3653 11.5928 12.6142C11.5928 12.8839 11.3646 13.0914 11.1157 13.0914H6.42687C6.15716 13.1122 5.92894 12.8839 5.92894 12.6142Z" />
        </symbol>
        <symbol id='ico_bangtin' viewBox="0 0 16 19" xmlns="http://www.w3.org/2000/svg">
            <path d="M0.293 7.707L7.293 0.707001C7.48053 0.51953 7.73484 0.414215 8 0.414215C8.26516 0.414215 8.51947 0.51953 8.707 0.707001L15.707 7.707C15.8946 7.89449 15.9999 8.14881 16 8.414V18C16 18.2652 15.8946 18.5196 15.7071 18.7071C15.5196 18.8946 15.2652 19 15 19H10V12H6V19H1C0.734784 19 0.48043 18.8946 0.292893 18.7071C0.105357 18.5196 0 18.2652 0 18V8.414C5.66374e-05 8.14881 0.105451 7.89449 0.293 7.707Z" />
        </symbol>
        <symbol id='ico_nhansu' viewBox="0 0 16 15"  xmlns="http://www.w3.org/2000/svg">
            <path fill-rule="evenodd" clip-rule="evenodd" d="M3.49765 6.98224H2.27185C1.79736 6.98224 1.38711 7.31316 1.28668 7.7769L0.0432457 13.519C-0.0927628 14.147 0.385781 14.7403 1.02841 14.7403H14.3845C15.1201 14.7403 15.608 13.9778 15.2997 13.3098L12.6491 7.56777C12.4843 7.21082 12.127 6.98224 11.7339 6.98224H10.8907C10.0478 7.92452 8.70576 8.53404 7.19416 8.53404C5.68256 8.53404 4.34052 7.92452 3.49765 6.98224Z" />
            <ellipse cx="7.19428" cy="3.87902" rx="4.62" ry="3.87902" />
        </symbol>
        <symbol id='ico_filter' viewBox="0 0 25 24" xmlns="http://www.w3.org/2000/svg">
            <g clip-path="url(#clip0_296_18787)">
                <path d="M23.374 0H1.62641C0.627133 0 0.122899 1.21247 0.830946 1.92052L9.5001 10.591V20.25C9.5001 20.6171 9.67921 20.9611 9.97996 21.1717L13.73 23.7957C14.4698 24.3136 15.5001 23.7887 15.5001 22.8741V10.591L24.1695 1.92052C24.8761 1.21388 24.3753 0 23.374 0Z" />
            </g>
            <defs>
                <clipPath id="clip0_296_18787">
                    <rect width="24" height="24"  transform="translate(0.5)"/>
                </clipPath>
            </defs>
        </symbol>
        <symbol id='ico_calender' width="60" height="60" viewBox="0 0 60 60" fill="none" xmlns="http://www.w3.org/2000/svg">
            <rect width="60" height="60" rx="30" fill="#0F296D"/>
            <path d="M38 21H36V20C36 19.7348 35.8946 19.4804 35.7071 19.2929C35.5196 19.1054 35.2652 19 35 19C34.7348 19 34.4804 19.1054 34.2929 19.2929C34.1054 19.4804 34 19.7348 34 20V21H31V20C31 19.7348 30.8946 19.4804 30.7071 19.2929C30.5196 19.1054 30.2652 19 30 19C29.7348 19 29.4804 19.1054 29.2929 19.2929C29.1054 19.4804 29 19.7348 29 20V21H26V20C26 19.7348 25.8946 19.4804 25.7071 19.2929C25.5196 19.1054 25.2652 19 25 19C24.7348 19 24.4804 19.1054 24.2929 19.2929C24.1054 19.4804 24 19.7348 24 20V21H22C21.2044 21 20.4413 21.3161 19.8787 21.8787C19.3161 22.4413 19 23.2044 19 24V38C19 38.7956 19.3161 39.5587 19.8787 40.1213C20.4413 40.6839 21.2044 41 22 41H38C38.7956 41 39.5587 40.6839 40.1213 40.1213C40.6839 39.5587 41 38.7956 41 38V24C41 23.2044 40.6839 22.4413 40.1213 21.8787C39.5587 21.3161 38.7956 21 38 21ZM21 24C21 23.7348 21.1054 23.4804 21.2929 23.2929C21.4804 23.1054 21.7348 23 22 23H24V24C24 24.2652 24.1054 24.5196 24.2929 24.7071C24.4804 24.8946 24.7348 25 25 25C25.2652 25 25.5196 24.8946 25.7071 24.7071C25.8946 24.5196 26 24.2652 26 24V23H29V24C29 24.2652 29.1054 24.5196 29.2929 24.7071C29.4804 24.8946 29.7348 25 30 25C30.2652 25 30.5196 24.8946 30.7071 24.7071C30.8946 24.5196 31 24.2652 31 24V23H34V24C34 24.2652 34.1054 24.5196 34.2929 24.7071C34.4804 24.8946 34.7348 25 35 25C35.2652 25 35.5196 24.8946 35.7071 24.7071C35.8946 24.5196 36 24.2652 36 24V23H38C38.2652 23 38.5196 23.1054 38.7071 23.2929C38.8946 23.4804 39 23.7348 39 24V27H21V24ZM39 38C39 38.2652 38.8946 38.5196 38.7071 38.7071C38.5196 38.8946 38.2652 39 38 39H22C21.7348 39 21.4804 38.8946 21.2929 38.7071C21.1054 38.5196 21 38.2652 21 38V29H39V38Z" fill="white"/>
        </symbol>
        <symbol id='ico_plus' viewBox="0 0 17 16"  xmlns="http://www.w3.org/2000/svg">
            <path d="M15.5 7H9.5V1C9.5 0.734784 9.39464 0.48043 9.20711 0.292893C9.01957 0.105357 8.76522 0 8.5 0C8.23478 0 7.98043 0.105357 7.79289 0.292893C7.60536 0.48043 7.5 0.734784 7.5 1V7H1.5C1.23478 7 0.98043 7.10536 0.792893 7.29289C0.605357 7.48043 0.5 7.73478 0.5 8C0.5 8.26522 0.605357 8.51957 0.792893 8.70711C0.98043 8.89464 1.23478 9 1.5 9H7.5V15C7.5 15.2652 7.60536 15.5196 7.79289 15.7071C7.98043 15.8946 8.23478 16 8.5 16C8.76522 16 9.01957 15.8946 9.20711 15.7071C9.39464 15.5196 9.5 15.2652 9.5 15V9H15.5C15.7652 9 16.0196 8.89464 16.2071 8.70711C16.3946 8.51957 16.5 8.26522 16.5 8C16.5 7.73478 16.3946 7.48043 16.2071 7.29289C16.0196 7.10536 15.7652 7 15.5 7Z" />
        </symbol>
        <symbol id='ico_search' viewBox="0 0 24 24"  xmlns="http://www.w3.org/2000/svg">
            <path d="M23.414 20.586L18.337 15.509C19.386 13.928 20 12.035 20 10C20 4.486 15.514 0 10 0C4.486 0 0 4.486 0 10C0 15.514 4.486 20 10 20C12.035 20 13.928 19.386 15.509 18.337L20.586 23.414C21.366 24.195 22.634 24.195 23.414 23.414C24.195 22.633 24.195 21.367 23.414 20.586ZM3 10C3 6.14 6.14 3 10 3C13.86 3 17 6.14 17 10C17 13.86 13.86 17 10 17C6.14 17 3 13.86 3 10Z" />
        </symbol>

        <symbol id='ico_achievement' viewBox="0 0 24 25"  xmlns="http://www.w3.org/2000/svg">
            <path d="M17 21.285L17.002 15.285C15.5839 16.4239 13.8188 17.0432 12 17.04C10.182 17.043 8.41769 16.4241 7 15.286L7.003 21.286C7.00333 21.4231 7.04125 21.5575 7.11264 21.6746C7.18403 21.7917 7.28616 21.887 7.40792 21.9501C7.52969 22.0132 7.66642 22.0417 7.80325 22.0325C7.94008 22.0233 8.07177 21.9768 8.184 21.898L12.001 19.211L15.819 21.898C15.9313 21.9771 16.0632 22.0239 16.2003 22.0332C16.3373 22.0425 16.4743 22.0139 16.5963 21.9507C16.7182 21.8874 16.8205 21.7919 16.8919 21.6745C16.9632 21.5571 17.001 21.4224 17.001 21.285H17ZM19 9.03998C19 8.12072 18.8189 7.21047 18.4672 6.36119C18.1154 5.51192 17.5998 4.74024 16.9497 4.09023C16.2997 3.44022 15.5281 2.9246 14.6788 2.57282C13.8295 2.22104 12.9193 2.03998 12 2.03998C11.0807 2.03998 10.1705 2.22104 9.32122 2.57282C8.47194 2.9246 7.70026 3.44022 7.05025 4.09023C6.40024 4.74024 5.88463 5.51192 5.53284 6.36119C5.18106 7.21047 5 8.12072 5 9.03998C5 10.8965 5.7375 12.677 7.05025 13.9897C8.36301 15.3025 10.1435 16.04 12 16.04C13.8565 16.04 15.637 15.3025 16.9497 13.9897C18.2625 12.677 19 10.8965 19 9.03998ZM12.229 5.68198L13.141 7.53498L15.185 7.82998C15.395 7.85998 15.478 8.11798 15.327 8.26498L13.848 9.70498L14.198 11.741C14.2061 11.7879 14.2009 11.8361 14.183 11.8802C14.1651 11.9243 14.1352 11.9626 14.0967 11.9905C14.0582 12.0185 14.0126 12.0352 13.9651 12.0386C13.9176 12.0421 13.8701 12.0321 13.828 12.01L12 11.048L10.173 12.01C10.1309 12.0321 10.0834 12.0421 10.0359 12.0386C9.98842 12.0352 9.94285 12.0185 9.90434 11.9905C9.86584 11.9626 9.83594 11.9243 9.81803 11.8802C9.80012 11.8361 9.79491 11.7879 9.803 11.741L10.153 9.70598L8.673 8.26598C8.63861 8.23276 8.61424 8.19055 8.60269 8.14415C8.59114 8.09775 8.59287 8.04904 8.60767 8.00358C8.62248 7.95811 8.64977 7.91773 8.68643 7.88703C8.72309 7.85634 8.76764 7.83657 8.815 7.82998L10.859 7.53498L11.771 5.68198C11.792 5.63913 11.8246 5.60304 11.8651 5.57779C11.9055 5.55254 11.9523 5.53916 12 5.53916C12.0477 5.53916 12.0945 5.55254 12.1349 5.57779C12.1754 5.60304 12.208 5.63913 12.229 5.68198V5.68198Z" />
        </symbol>
        <symbol id='ico_edit' fill="none" height="24" viewBox="0 0 24 24" width="24" xmlns="http://www.w3.org/2000/svg">
            <path
                d="M16.474 5.40801L18.592 7.52501L16.474 5.40801ZM17.836 3.54301L12.109 9.27001C11.8131 9.56551 11.6113 9.94199 11.529 10.352L11 13L13.648 12.47C14.058 12.388 14.434 12.187 14.73 11.891L20.457 6.16401C20.6291 5.99191 20.7656 5.7876 20.8588 5.56275C20.9519 5.33789 20.9998 5.09689 20.9998 4.85351C20.9998 4.61013 20.9519 4.36913 20.8588 4.14427C20.7656 3.91942 20.6291 3.71511 20.457 3.54301C20.2849 3.37091 20.0806 3.2344 19.8557 3.14126C19.6309 3.04812 19.3899 3.00018 19.1465 3.00018C18.9031 3.00018 18.6621 3.04812 18.4373 3.14126C18.2124 3.2344 18.0081 3.37091 17.836 3.54301V3.54301Z"
                stroke="#38A4F8"
                stroke-linecap="round"
                stroke-linejoin="round"
                stroke-width="2"
            />
            <path
                d="M19 15V18C19 18.5304 18.7893 19.0391 18.4142 19.4142C18.0391 19.7893 17.5304 20 17 20H6C5.46957 20 4.96086 19.7893 4.58579 19.4142C4.21071 19.0391 4 18.5304 4 18V7C4 6.46957 4.21071 5.96086 4.58579 5.58579C4.96086 5.21071 5.46957 5 6 5H9"
                stroke="#38A4F8"
                stroke-linecap="round"
                stroke-linejoin="round"
                stroke-width="2"
            />
        </symbol>
        <symbol width="20" fill="#d32929" id="icon_trash" viewBox="0 0 14 14" xmlns="http://www.w3.org/2000/svg">
            <path
                d="M8.93108 5.0722C8.74998 5.0722 8.60321 5.21898 8.60321 5.40007V11.5968C8.60321 11.7778 8.74998 11.9247 8.93108 11.9247C9.11217 11.9247 9.25895 11.7778 9.25895 11.5968V5.40007C9.25895 5.21898 9.11217 5.0722 8.93108 5.0722Z"
            />
            <path
                d="M5.06224 5.0722C4.88115 5.0722 4.73438 5.21898 4.73438 5.40007V11.5968C4.73438 11.7778 4.88115 11.9247 5.06224 11.9247C5.24334 11.9247 5.39011 11.7778 5.39011 11.5968V5.40007C5.39011 5.21898 5.24334 5.0722 5.06224 5.0722Z"
            />
            <path
                d="M2.2426 4.16793V12.2459C2.2426 12.7234 2.41767 13.1717 2.72351 13.4935C3.02794 13.8161 3.45161 13.9992 3.895 14H10.0984C10.5419 13.9992 10.9655 13.8161 11.2698 13.4935C11.5757 13.1717 11.7508 12.7234 11.7508 12.2459V4.16793C12.3587 4.00656 12.7527 3.41922 12.6713 2.79537C12.5899 2.17166 12.0585 1.70508 11.4294 1.70496H9.75077V1.29512C9.75269 0.950476 9.61642 0.619534 9.37244 0.376067C9.12846 0.132727 8.797 -0.00277453 8.45236 4.30791e-05H5.541C5.19635 -0.00277453 4.8649 0.132727 4.62092 0.376067C4.37694 0.619534 4.24067 0.950476 4.24259 1.29512V1.70496H2.56393C1.93484 1.70508 1.40346 2.17166 1.32201 2.79537C1.24068 3.41922 1.63463 4.00656 2.2426 4.16793ZM10.0984 13.3443H3.895C3.33442 13.3443 2.89833 12.8627 2.89833 12.2459V4.19675H11.095V12.2459C11.095 12.8627 10.6589 13.3443 10.0984 13.3443ZM4.89833 1.29512C4.89615 1.1244 4.96326 0.960081 5.08442 0.839564C5.20545 0.719047 5.37015 0.652833 5.541 0.655779H8.45236C8.62321 0.652833 8.78791 0.719047 8.90894 0.839564C9.0301 0.959953 9.09721 1.1244 9.09503 1.29512V1.70496H4.89833V1.29512ZM2.56393 2.36069H11.4294C11.7554 2.36069 12.0196 2.62491 12.0196 2.95085C12.0196 3.2768 11.7554 3.54102 11.4294 3.54102H2.56393C2.23799 3.54102 1.97377 3.2768 1.97377 2.95085C1.97377 2.62491 2.23799 2.36069 2.56393 2.36069Z"
            />
            <path
                d="M6.99669 5.0722C6.8156 5.0722 6.66882 5.21898 6.66882 5.40007V11.5968C6.66882 11.7778 6.8156 11.9247 6.99669 11.9247C7.17779 11.9247 7.32456 11.7778 7.32456 11.5968V5.40007C7.32456 5.21898 7.17779 5.0722 6.99669 5.0722Z"
            />
        </symbol>
        <symbol id='ico_logo' width="126" height="41" viewBox="0 0 126 41" fill="none" xmlns="http://www.w3.org/2000/svg">
            <path d="M36.3327 27.3236V33.6162H35.521V27.3236H36.3327Z" fill="white"/>
            <path d="M37.8167 30.3217C37.8167 29.8546 37.8075 29.4718 37.7799 29.0982H38.5087L38.5548 29.8454H38.5732C38.7969 29.4165 39.3205 28.9955 40.0664 28.9955C40.6913 28.9955 41.6636 29.3692 41.6636 30.919V33.6173H40.8413V31.0124C40.8413 30.2835 40.5703 29.677 39.7954 29.677C39.2534 29.677 38.8337 30.0599 38.6943 30.5177C38.6574 30.6203 38.6377 30.7611 38.6377 30.9005V33.6173H37.8154V30.3217H37.8167Z" fill="white"/>
            <path d="M42.9991 30.3217C42.9991 29.8546 42.9899 29.4718 42.9623 29.0982H43.6911L43.7372 29.8454H43.7556C43.9792 29.4165 44.5029 28.9955 45.2488 28.9955C45.8737 28.9955 46.8459 29.3692 46.8459 30.919V33.6173H46.0237V31.0124C46.0237 30.2835 45.7527 29.677 44.9778 29.677C44.4358 29.677 44.0161 30.0599 43.8766 30.5177C43.8398 30.6203 43.8201 30.7611 43.8201 30.9005V33.6173H42.9978V30.3217H42.9991Z" fill="white"/>
            <path d="M52.2697 31.3202C52.2697 32.991 51.112 33.7199 50.02 33.7199C48.7965 33.7199 47.8546 32.824 47.8546 31.3952C47.8546 29.8823 48.8439 28.9955 50.095 28.9955C51.3922 28.9955 52.2697 29.9388 52.2697 31.3202ZM48.6847 31.3676C48.6847 32.3569 49.2544 33.1042 50.0569 33.1042C50.841 33.1042 51.4291 32.3661 51.4291 31.3492C51.4291 30.5835 51.0462 29.6126 50.0753 29.6126C49.1044 29.6126 48.6847 30.5085 48.6847 31.3676Z" fill="white"/>
            <path d="M53.5575 29.0968L54.4442 31.6359C54.5942 32.0464 54.7152 32.42 54.8086 32.7936H54.8363C54.9389 32.42 55.0691 32.0464 55.2191 31.6359L56.0966 29.0968H56.9557L55.1823 33.6159H54.3982L52.68 29.0968H53.5575Z" fill="white"/>
            <path d="M60.195 33.6173L60.1293 33.0477H60.1016C59.849 33.4029 59.3636 33.7199 58.7203 33.7199C57.8046 33.7199 57.3389 33.0753 57.3389 32.4228C57.3389 31.3308 58.3098 30.7322 60.0556 30.7427V30.6493C60.0556 30.2757 59.953 29.6034 59.0281 29.6034C58.6084 29.6034 58.169 29.7337 57.852 29.9402L57.6651 29.3982C58.0388 29.1548 58.5808 28.9969 59.1491 28.9969C60.5305 28.9969 60.8673 29.9402 60.8673 30.8453V32.5359C60.8673 32.9279 60.8857 33.3108 60.9423 33.6186H60.195V33.6173ZM60.074 31.3111C59.1781 31.2926 58.1598 31.4505 58.1598 32.3293C58.1598 32.8608 58.515 33.1134 58.9347 33.1134C59.5228 33.1134 59.8964 32.7398 60.0266 32.357C60.0543 32.2728 60.0727 32.1794 60.0727 32.0952V31.3111H60.074Z" fill="white"/>
            <path d="M63.1458 27.8013V29.0985H64.322V29.7234H63.1458V32.1599C63.1458 32.7204 63.305 33.0374 63.7615 33.0374C63.976 33.0374 64.1352 33.0098 64.2378 32.9809L64.2746 33.5966C64.1154 33.6623 63.8641 33.7084 63.5458 33.7084C63.1629 33.7084 62.8551 33.5874 62.6591 33.3624C62.4262 33.119 62.342 32.7177 62.342 32.1862V29.7208H61.6421V29.0959H62.342V28.0131L63.1458 27.8013Z" fill="white"/>
            <path d="M66.1614 27.8286C66.1706 28.1089 65.9654 28.3325 65.6391 28.3325C65.3497 28.3325 65.1445 28.1089 65.1445 27.8286C65.1445 27.5392 65.3589 27.3156 65.6576 27.3156C65.9654 27.3156 66.1614 27.5392 66.1614 27.8286ZM65.2458 33.6173V29.0982H66.068V33.6173H65.2458Z" fill="white"/>
            <path d="M71.5203 31.3202C71.5203 32.991 70.3626 33.7199 69.2707 33.7199C68.0471 33.7199 67.1052 32.824 67.1052 31.3952C67.1052 29.8823 68.0945 28.9955 69.3456 28.9955C70.6428 28.9955 71.5203 29.9388 71.5203 31.3202ZM67.9353 31.3676C67.9353 32.3569 68.505 33.1042 69.3075 33.1042C70.0916 33.1042 70.6797 32.3661 70.6797 31.3492C70.6797 30.5835 70.2968 29.6126 69.3259 29.6126C68.355 29.6126 67.9353 30.5085 67.9353 31.3676Z" fill="white"/>
            <path d="M72.5565 30.3217C72.5565 29.8546 72.5473 29.4718 72.5197 29.0982H73.2485L73.2945 29.8454H73.313C73.5366 29.4165 74.0602 28.9955 74.8075 28.9955C75.4324 28.9955 76.4046 29.3692 76.4046 30.919V33.6173H75.5824V31.0124C75.5824 30.2835 75.3114 29.677 74.5365 29.677C73.9944 29.677 73.5748 30.0599 73.4353 30.5177C73.3985 30.6203 73.3787 30.7611 73.3787 30.9005V33.6173H72.5565V30.3217Z" fill="white"/>
            <path d="M77.6259 32.7779C77.868 32.9371 78.2982 33.1042 78.7086 33.1042C79.3059 33.1042 79.5861 32.8055 79.5861 32.4319C79.5861 32.0399 79.3533 31.8254 78.7455 31.6004C77.9337 31.311 77.5509 30.8624 77.5509 30.3217C77.5509 29.5928 78.139 28.9955 79.1099 28.9955C79.5677 28.9955 79.969 29.1258 80.2216 29.2758L80.0163 29.8731C79.8387 29.7612 79.5125 29.6112 79.0915 29.6112C78.606 29.6112 78.335 29.8915 78.335 30.227C78.335 30.6006 78.606 30.769 79.1941 30.9926C79.9782 31.2913 80.3794 31.6833 80.3794 32.3556C80.3794 33.1489 79.7637 33.7094 78.6902 33.7094C78.1955 33.7094 77.7377 33.5883 77.4207 33.4015L77.6259 32.7779Z" fill="white"/>
            <path d="M83.4989 33.6171V29.7242H82.8635V29.0993H83.4989V28.8849C83.4989 28.2494 83.6384 27.6706 84.0212 27.3075C84.3291 27.0088 84.7395 26.8878 85.1224 26.8878C85.4118 26.8878 85.6644 26.9536 85.8223 27.018L85.7104 27.6535C85.5894 27.5969 85.421 27.5509 85.1881 27.5509C84.4882 27.5509 84.3106 28.1666 84.3106 28.8586V29.1019H85.4026V29.7269H84.3106V33.6197H83.4989V33.6171Z" fill="white"/>
            <path d="M90.1083 31.3202C90.1083 32.991 88.9506 33.7199 87.8587 33.7199C86.6352 33.7199 85.6932 32.824 85.6932 31.3952C85.6932 29.8823 86.6825 28.9955 87.9337 28.9955C89.2308 28.9955 90.1083 29.9388 90.1083 31.3202ZM86.5233 31.3676C86.5233 32.3569 87.093 33.1042 87.8955 33.1042C88.6796 33.1042 89.2677 32.3661 89.2677 31.3492C89.2677 30.5835 88.8848 29.6126 87.9139 29.6126C86.943 29.6126 86.5233 30.5085 86.5233 31.3676Z" fill="white"/>
            <path d="M91.1432 30.5085C91.1432 29.9757 91.134 29.5192 91.1063 29.0982H91.8246L91.8523 29.9849H91.8891C92.0943 29.3784 92.589 28.9955 93.1402 28.9955C93.2337 28.9955 93.2994 29.0048 93.3731 29.0232V29.7981C93.2889 29.7796 93.2047 29.7704 93.0929 29.7704C92.514 29.7704 92.1035 30.2098 91.9917 30.8256C91.9733 30.9374 91.9549 31.0689 91.9549 31.2084V33.6173H91.1432V30.5085Z" fill="white"/>
            <path d="M96.2043 27.3236H97.0161V32.9347H99.7052V33.6162H96.2043V27.3236Z" fill="white"/>
            <path d="M101.498 27.8286C101.507 28.1089 101.302 28.3325 100.975 28.3325C100.686 28.3325 100.481 28.1089 100.481 27.8286C100.481 27.5392 100.695 27.3156 100.994 27.3156C101.302 27.3156 101.498 27.5392 101.498 27.8286ZM100.583 33.6173V29.0982H101.406V33.6173H100.583Z" fill="white"/>
            <path d="M102.851 33.6171V29.7242H102.216V29.0993H102.851V28.8849C102.851 28.2494 102.991 27.6706 103.374 27.3075C103.682 27.0088 104.092 26.8878 104.475 26.8878C104.764 26.8878 105.017 26.9536 105.175 27.018L105.063 27.6535C104.942 27.5969 104.773 27.5509 104.541 27.5509C103.841 27.5509 103.663 28.1666 103.663 28.8586V29.1019H104.755V29.7269H103.663V33.6197H102.851V33.6171Z" fill="white"/>
            <path d="M105.83 31.507C105.848 32.6187 106.559 33.0752 107.38 33.0752C107.968 33.0752 108.323 32.9726 108.631 32.8424L108.77 33.4304C108.481 33.5607 107.986 33.7107 107.266 33.7107C105.876 33.7107 105.044 32.7963 105.044 31.432C105.044 30.0691 105.847 28.9955 107.164 28.9955C108.639 28.9955 109.031 30.2927 109.031 31.1242C109.031 31.2926 109.012 31.4228 109.003 31.507H105.83ZM108.239 30.919C108.248 30.3967 108.024 29.5836 107.099 29.5836C106.268 29.5836 105.905 30.3493 105.839 30.919H108.239Z" fill="white"/>
            <path d="M108.636 9.25827C109.463 9.25827 110.828 9.25827 110.828 9.25827C110.828 9.25827 110.839 16.0521 110.812 19.4226C110.775 20.1067 110.476 20.7067 110.151 21.2605C108.825 23.5207 105.16 24.5167 101.738 23.6036C99.0898 22.8958 97.6282 20.8935 97.6216 17.9373C97.615 15.0772 97.6203 12.2171 97.6203 9.28327C98.757 9.28327 99.7752 9.28327 101.013 9.28327C101.013 10.0318 101.013 10.8094 101.013 11.5869C101.013 13.8931 100.975 16.1994 101.025 18.5043C101.078 20.9158 102.659 22.513 104.869 22.4959C107.016 22.4788 108.573 20.9172 108.62 18.5622C108.683 15.51 108.636 12.4552 108.636 9.25827Z" fill="white"/>
            <path d="M117.979 17.3712C117.979 19.5538 117.979 21.4785 117.979 23.5151C116.785 23.5151 115.64 23.5151 114.398 23.5151C114.398 18.8223 114.398 9.11708 114.398 9.11708C114.398 9.11708 118.995 8.93684 121.243 9.25785C123.851 9.63148 125.174 11.4707 125.043 13.5809C124.92 15.5372 123.161 17.1278 120.775 17.358C119.9 17.4422 119.011 17.3712 117.979 17.3712ZM118.048 10.7011C118.048 12.4298 118.048 14.1493 118.048 15.8951C119.234 16.1332 120.453 16.0858 120.863 14.9202C121.201 13.9598 121.222 12.6942 120.887 11.7378C120.488 10.5998 119.262 10.4853 118.048 10.7011Z" fill="white"/>
            <path d="M83.4819 19.9519C84.5568 19.9519 85.5882 19.9519 85.5882 19.9519C85.5882 19.9519 85.7435 20.3755 86.5499 21.2846C87.5037 22.3581 89.3285 22.8843 90.5625 22.1016C91.5321 21.4872 91.7426 20.2321 90.8506 19.3033C90.1849 18.6099 89.2995 18.1153 88.4747 17.5877C87.3301 16.8562 86.0421 16.3076 85.0107 15.4459C83.2057 13.9369 83.3609 11.5425 85.2001 10.098C88.4207 7.5707 93.4042 9.04286 94.3567 12.8042C93.1911 12.8068 92.2465 12.8042 92.2465 12.8042C92.2465 12.8042 92.0044 12.3003 91.5742 11.6951C91.1032 11.0334 90.2678 10.3387 88.9864 10.394C88.0155 10.4361 87.1104 10.6479 86.721 11.6754C86.3131 12.7555 86.8972 13.5278 87.7261 14.0619C88.8286 14.7736 90.0231 15.3407 91.1493 16.0182C91.9505 16.501 92.7793 16.9812 93.4608 17.6088C94.7606 18.8073 94.8948 20.5347 93.8094 21.9332C92.257 23.9329 90.0376 24.0815 87.78 23.8289C85.7014 23.5961 84.17 22.5449 83.5635 20.4215C83.5398 20.336 83.5004 20.1571 83.4819 19.9519Z" fill="white"/>
            <path d="M73.1236 22.2118C75.5049 22.2118 77.7953 22.2118 80.1674 22.2118C80.1674 22.7117 80.1674 23.1051 80.1674 23.5629C76.6837 23.5629 73.2657 23.5629 69.7531 23.5629C69.7531 18.8162 69.7531 14.0932 69.7531 9.20969C73.05 9.20969 80.1555 9.20969 80.1555 9.20969V10.3148C80.1555 10.3148 75.5141 10.3148 73.1223 10.3148C73.1223 11.9593 73.1223 13.4472 73.1223 15.1457C74.7866 15.1457 78.9189 15.1457 78.9189 15.1457L78.9149 16.2679C78.9149 16.2679 75.0984 16.2679 73.1236 16.2679C73.1236 18.2716 73.1236 20.1371 73.1236 22.2118Z" fill="white"/>
            <path d="M56.1578 23.5545C56.1578 18.767 56.1578 14.0742 56.1578 9.29333C59.5192 9.29333 66.1564 9.29333 66.1564 9.29333V10.3458C66.1564 10.3458 61.49 10.3366 59.5205 10.3366C59.5205 11.9482 59.5205 15.0991 59.5205 15.0991H65.2434L65.246 16.2818L59.5205 16.2739C59.5205 16.2739 59.5205 21.1127 59.5205 23.5545C58.3496 23.5545 57.3314 23.5545 56.1578 23.5545Z" fill="white"/>
            <path d="M38.5559 22.2054C41.1029 22.2054 45.9641 22.2054 45.9641 22.2054V23.5328C45.9641 23.5328 38.8677 23.5328 35.288 23.5328C35.288 18.8164 35.288 14.1276 35.288 9.32169C36.3036 9.32169 37.3521 9.32169 38.5559 9.32169C38.5559 13.5303 38.5559 17.785 38.5559 22.2054Z" fill="white"/>
            <path d="M52.064 23.5617C50.947 23.5617 49.93 23.5617 48.842 23.5617C48.842 18.8111 48.842 14.1222 48.842 9.31897C49.8643 9.31897 50.9141 9.31897 52.064 9.31897C52.064 14.0038 52.064 18.7255 52.064 23.5617Z" fill="white"/>
            <path d="M30.0899 11.6467H7.78644C7.15627 11.6467 6.64581 12.1572 6.64581 12.7873V35.0921C6.64581 35.7223 7.15627 36.2327 7.78644 36.2327H30.0912C30.7214 36.2327 31.2318 35.7223 31.2318 35.0921V12.786C31.2305 12.1572 30.7201 11.6467 30.0899 11.6467Z" fill="#6BD5D1"/>
            <path d="M31.1603 0H25.2112C24.927 0 24.6954 0.230231 24.6954 0.515717V6.15308C24.6954 6.43725 24.9257 6.6688 25.2112 6.6688H31.1603C31.4445 6.6688 31.676 6.43857 31.676 6.15308V0.515717C31.676 0.230231 31.4458 0 31.1603 0Z" fill="#19C6C0"/>
            <path d="M4.30576 36.4987H1.25093C1.06279 36.4987 0.911499 36.6513 0.911499 36.8381V39.893C0.911499 40.0811 1.06411 40.2324 1.25093 40.2324H4.30576C4.49389 40.2324 4.64519 40.0798 4.64519 39.893V36.8381C4.64519 36.6513 4.49389 36.4987 4.30576 36.4987Z" fill="white"/>
            <path d="M18.9289 2.4006H0.920923C0.411784 2.4006 0 2.81239 0 3.32153V21.3295C0 21.8387 0.411784 22.2505 0.920923 22.2505H18.9289C19.4381 22.2505 19.8498 21.8387 19.8498 21.3295V3.32153C19.8498 2.81239 19.4381 2.4006 18.9289 2.4006Z" fill="#00BDF5" fill-opacity="0.85"/>
        </symbol>
        <symbol id='ico_add' viewBox="0 0 42 42" fill="none" xmlns="http://www.w3.org/2000/svg">
            <path d="M21 21H13M21 13V21V13ZM21 21V29V21ZM21 21H29H21Z" stroke="#0F296D" stroke-width="2" stroke-linecap="round"/>
            <path d="M21 41C32.0457 41 41 32.0457 41 21C41 9.9543 32.0457 1 21 1C9.9543 1 1 9.9543 1 21C1 32.0457 9.9543 41 21 41Z" stroke="#0F296D" stroke-width="2"/>
        </symbol>


    </defs>
</svg>
